{"title":"My.Life.in.Ruins.2009.DVDRiP.XviD.OPTIONAL-NORDIC_SUB-Zen_Bud","uid":5914492,"size":758292535,"categoryP":"video","categoryS":"movies","magnet":"?xt=urn:btih:6c55672c0c691f858cffb807117bc7701034c9ae&amp;dn=My.Life.in.Ruins.2009.DVDRiP.XviD.OPTIONAL-NORDIC_SUB-Zen_Bud&amp;tr=udp%3A%2F%2Ftracker.openbittorrent.com%3A80&amp;tr=udp%3A%2F%2Fopen.demonii.com%3A1337&amp;tr=udp%3A%2F%2Ftracker.coppersurfer.tk%3A6969&amp;tr=udp%3A%2F%2Fexodus.desync.com%3A6969","seeders":2,"leechers":0,"uploader":"Zen_Bud","files":-1,"time":1288170718,"description":"\n****** My.Life.in.Ruins.2009.DVDRiP.XviD.OPTIONAL-NORDIC_SUB-Zen_Bud ********\n\nFormat                           : AVI\nFile size                        : 706 MiB\nDuration                         : 1h 30mn\nOverall bit rate                 : 1 085 Kbps\n\nVideo\n\nFormat                           : MPEG-4 Visual\nCodec ID/Hint                    : XviD\nDuration                         : 1h 30mn\nBit rate                         : 944 Kbps\nWidth                            : 720 pixels\nHeight                           : 576 pixels\nDisplay aspect ratio             : 16:9\nStream size                      : 614 MiB (87%)\nWriting library                  : XviD 1.1.2 (UTC 2006-11-01)\n\nAudio\n\nFormat                           : MPEG Audio\nCodec ID/Hint                    : MP3\nDuration                         : 1h 30mn\nBit rate                         : 128 Kbps\nChannel(s)                       : 2 channels\nSampling rate                    : 48.0 KHz\nStream size                      : 83.3 MiB (12%)\nWriting library                  : LAME3.98\nLanguage                         : English\n\nText #1\nLanguage                         : Swedish\n\nText #2\nLanguage                         : Norwegian\n\nText #3\nLanguage                         : Danish\n\nText #4\nLanguage                         : Finnish\n\n\n\nA travel guide rediscovers her romantic side on a trip around Greece.\n","torrent":{"xt":"urn:btih:6c55672c0c691f858cffb807117bc7701034c9ae","amp;dn":"My.Life.in.Ruins.2009.DVDRiP.XviD.OPTIONAL-NORDIC_SUB-Zen_Bud","amp;tr":["udp%3A%2F%2Ftracker.openbittorrent.com%3A80","udp%3A%2F%2Fopen.demonii.com%3A1337","udp%3A%2F%2Ftracker.coppersurfer.tk%3A6969","udp%3A%2F%2Fexodus.desync.com%3A6969"],"infoHash":"6c55672c0c691f858cffb807117bc7701034c9ae","infoHashBuffer":{"type":"Buffer","data":[108,85,103,44,12,105,31,133,140,255,184,7,17,123,199,112,16,52,201,174]},"announce":[],"urlList":[]}}